<?xml version="1.0" standalone="no"?>
<!DOCTYPE svg PUBLIC "-//W3C//DTD SVG 20010904//EN"
 "http://www.w3.org/TR/2001/REC-SVG-20010904/DTD/svg10.dtd">
<svg version="1.0" xmlns="http://www.w3.org/2000/svg"
 width="1149.000000pt" height="1149.000000pt" viewBox="0 0 1149.000000 1149.000000"
 preserveAspectRatio="xMidYMid meet">
<metadata>
Created by potrace 1.14, written by Peter Selinger 2001-2017
</metadata>
<g transform="translate(0.000000,1149.000000) scale(0.100000,-0.100000)"
fill="#000000" stroke="none">
<path d="M5459 11476 c-2 -2 -56 -7 -119 -11 -63 -3 -117 -8 -120 -10 -3 -1
-45 -6 -95 -10 -49 -4 -92 -8 -95 -10 -3 -2 -30 -6 -60 -9 -30 -3 -80 -11
-110 -16 -30 -5 -71 -12 -90 -15 -19 -3 -46 -8 -60 -10 -14 -3 -36 -7 -50 -10
-14 -3 -47 -9 -75 -15 -27 -6 -59 -12 -70 -14 -11 -2 -40 -9 -65 -16 -25 -7
-53 -14 -62 -15 -67 -13 -282 -76 -433 -126 -414 -139 -752 -293 -1129 -516
-100 -59 -374 -238 -386 -252 -3 -3 -30 -23 -60 -43 -30 -21 -67 -48 -82 -60
-14 -13 -39 -32 -54 -43 -15 -11 -44 -33 -64 -50 -20 -16 -56 -46 -80 -65 -24
-19 -48 -39 -54 -45 -6 -5 -43 -37 -81 -69 -115 -98 -473 -462 -581 -591 -55
-66 -135 -165 -177 -220 -43 -55 -81 -104 -85 -110 -4 -5 -28 -39 -52 -75 -25
-36 -47 -67 -50 -70 -9 -8 -112 -167 -175 -270 -130 -213 -278 -499 -370 -717
-25 -60 -49 -117 -54 -128 -86 -202 -226 -651 -275 -885 -17 -79 -37 -179 -41
-205 -3 -16 -10 -52 -15 -80 -5 -27 -12 -70 -15 -95 -3 -25 -10 -72 -15 -105
-5 -33 -12 -89 -16 -125 -3 -36 -7 -78 -9 -95 -27 -240 -27 -930 0 -1095 2
-14 7 -52 10 -85 10 -107 20 -181 30 -235 3 -14 7 -41 10 -60 22 -139 50 -277
82 -405 25 -101 29 -118 37 -155 3 -11 17 -60 32 -108 14 -48 27 -91 28 -97 3
-16 77 -238 91 -270 7 -16 32 -79 55 -140 82 -209 192 -447 285 -615 26 -47
61 -110 77 -140 17 -30 37 -62 44 -71 8 -8 14 -19 14 -23 0 -4 18 -34 40 -67
22 -33 40 -62 40 -64 0 -8 84 -130 92 -133 4 -2 8 -8 8 -14 0 -5 11 -24 24
-41 12 -18 56 -77 96 -132 41 -55 76 -102 80 -105 3 -3 17 -21 30 -40 14 -19
32 -42 40 -51 8 -9 22 -25 30 -35 159 -202 435 -487 665 -689 165 -144 502
-405 524 -405 5 0 11 -4 13 -8 1 -5 57 -44 123 -87 302 -197 678 -391 1005
-520 52 -20 115 -45 140 -55 115 -46 547 -177 640 -194 14 -3 75 -16 135 -29
98 -22 272 -55 332 -62 13 -2 40 -6 60 -9 214 -32 320 -37 843 -35 382 1 564
5 635 15 55 7 122 16 149 19 27 4 58 9 70 11 11 2 38 6 61 10 34 5 285 55 350
69 540 122 1148 367 1635 658 160 96 432 279 540 364 8 6 51 40 95 74 44 34
82 65 85 68 3 4 21 19 40 35 99 81 264 232 384 352 583 584 1050 1317 1332
2093 46 126 148 448 158 499 3 15 19 83 36 152 16 69 32 140 35 157 3 18 9 53
15 78 6 25 13 62 15 83 3 20 8 46 10 58 3 12 7 39 10 60 3 21 7 48 10 59 2 11
7 47 10 80 4 33 11 92 16 130 11 91 10 1162 -2 1240 -49 333 -64 419 -89 540
-17 77 -32 147 -34 155 -2 8 -10 38 -16 65 -52 215 -195 649 -260 790 -9 19
-36 80 -90 205 -40 90 -183 369 -233 453 -26 43 -47 81 -47 84 0 4 -11 21 -25
39 -14 18 -25 35 -25 38 0 9 -153 241 -162 244 -4 2 -8 9 -8 16 0 7 -9 21 -20
31 -11 10 -20 24 -20 31 0 7 -3 14 -7 16 -5 2 -42 48 -83 103 -240 320 -516
618 -815 880 -38 33 -73 65 -79 70 -6 6 -67 54 -136 108 -69 53 -129 100 -135
105 -5 4 -26 19 -45 32 -19 14 -43 33 -54 43 -11 9 -23 17 -27 17 -4 0 -14 6
-21 13 -11 10 -226 153 -293 194 -218 133 -546 301 -755 388 -63 26 -124 51
-135 56 -77 33 -350 129 -440 154 -27 8 -84 24 -125 35 -77 22 -259 69 -295
76 -11 2 -51 10 -90 18 -67 15 -203 39 -290 51 -22 4 -50 8 -61 10 -21 3 -90
12 -159 20 -16 2 -64 6 -105 10 -41 4 -91 9 -110 11 -44 6 -726 15 -731 10z"/>
</g>
</svg>
